# This file uses centimeters as units for non-parametric coordinates.

mtllib paper.mtl
g default
v -0.667766 0.029081 0.500000
v 0.667766 0.039685 0.500000
v -0.667766 0.034081 0.500000
v 0.667766 0.044684 0.500000
v -0.667766 0.044474 -0.500000
v 0.667766 0.044684 -0.500000
v -0.667766 0.039474 -0.500000
v 0.667766 0.039684 -0.500000
v 0.400659 0.028346 0.500000
v 0.400659 0.033346 0.500000
v 0.400659 0.033346 -0.500000
v 0.400659 0.028346 -0.500000
v 0.133553 0.010271 0.500000
v 0.133553 0.015271 0.500000
v 0.133553 0.015271 -0.500000
v 0.133553 0.010271 -0.500000
v -0.133553 0.005004 0.500000
v -0.133553 0.009998 0.500000
v -0.133553 0.010212 -0.500000
v -0.133553 0.005214 -0.500000
v -0.400659 0.015892 0.500000
v -0.400659 0.020882 0.500000
v -0.400659 0.026828 -0.500000
v -0.400659 0.021828 -0.500000
v 0.133553 0.003711 0.000000
v -0.133553 0.003092 0.000000
v -0.400659 0.017089 0.000000
v -0.667766 0.027799 0.000000
v -0.667766 0.022799 0.000000
v -0.400659 0.012088 0.000000
v -0.133553 -0.001908 0.000000
v 0.133553 -0.001289 0.000000
v 0.400659 0.012195 0.000000
v 0.667766 0.023869 0.000000
v 0.667766 0.028869 0.000000
v 0.400659 0.017195 0.000000
vt 0.000000 0.000000
vt 1.000000 0.000000
vt 0.000000 1.000000
vt 1.000000 1.000000
vt 0.000000 0.000000
vt 1.000000 0.000000
vt 0.000000 1.000000
vt 1.000000 1.000000
vt 0.000000 0.000000
vt 1.000000 0.000000
vt 0.000000 1.000000
vt 1.000000 1.000000
vt 0.000000 0.000000
vt 1.000000 0.000000
vt 0.000000 1.000000
vt 1.000000 1.000000
vt 0.000000 0.000000
vt 1.000000 0.000000
vt 0.000000 1.000000
vt 1.000000 1.000000
vt 0.000000 0.000000
vt 1.000000 0.000000
vt 0.000000 1.000000
vt 1.000000 1.000000
vt 0.800000 0.000000
vt 0.800000 1.000000
vt 0.800000 0.000000
vt 0.800000 1.000000
vt 0.800000 0.000000
vt 0.800000 1.000000
vt 0.800000 0.000000
vt 0.800000 1.000000
vt 0.600000 0.000000
vt 0.600000 1.000000
vt 0.600000 0.000000
vt 0.600000 1.000000
vt 0.600000 0.000000
vt 0.600000 1.000000
vt 0.600000 0.000000
vt 0.600000 1.000000
vt 0.400000 0.000000
vt 0.400000 1.000000
vt 0.400000 0.000000
vt 0.400000 1.000000
vt 0.400000 0.000000
vt 0.400000 1.000000
vt 0.400000 0.000000
vt 0.400000 1.000000
vt 0.200000 0.000000
vt 0.200000 1.000000
vt 0.200000 0.000000
vt 0.200000 1.000000
vt 0.200000 0.000000
vt 0.200000 1.000000
vt 0.200000 0.000000
vt 0.200000 1.000000
vt 0.600000 0.500000
vt 0.400000 0.500000
vt 0.200000 0.500000
vt 0.500000 1.000000
vt 0.000000 0.500000
vt 0.500000 0.000000
vt 0.000000 0.500000
vt 0.200000 0.500000
vt 0.400000 0.500000
vt 0.600000 0.500000
vt 0.800000 0.500000
vt 1.000000 0.500000
vt 0.500000 0.000000
vt 1.000000 0.500000
vt 0.500000 1.000000
vt 0.800000 0.500000
vn 0.000000 0.000000 1.000000
vn 0.000000 0.000000 1.000000
vn 0.000000 0.000000 1.000000
vn 0.000000 0.000000 1.000000
vn 0.044707 0.998949 -0.010065
vn 0.045047 0.998933 -0.010182
vn 0.051524 0.998665 0.003548
vn 0.049012 0.998759 0.008842
vn 0.000000 0.000000 -1.000000
vn 0.000000 0.000000 -1.000000
vn 0.000000 0.000000 -1.000000
vn 0.000000 0.000000 -1.000000
vn -0.049006 -0.998759 -0.008837
vn -0.051523 -0.998666 -0.003542
vn -0.045035 -0.998933 0.010193
vn -0.044691 -0.998950 0.010075
vn 1.000000 0.000000 0.000000
vn 1.000000 0.000000 0.000000
vn 1.000000 0.000000 0.000000
vn 1.000000 0.000000 0.000000
vn -1.000000 0.000000 0.000000
vn -1.000000 0.000000 0.000000
vn -1.000000 0.000000 0.000000
vn -1.000000 0.000000 0.000000
vn -0.000000 0.000000 1.000000
vn 0.000000 0.000000 1.000000
vn 0.000000 0.000000 1.000000
vn -0.000000 0.000000 1.000000
vn -0.058085 0.998312 -0.000000
vn -0.043845 0.998535 -0.031697
vn -0.043013 0.998564 -0.031920
vn -0.043035 0.999073 0.000000
vn 0.000000 0.000000 -1.000000
vn 0.000000 0.000000 -1.000000
vn 0.000000 0.000000 -1.000000
vn 0.000000 0.000000 -1.000000
vn 0.043847 -0.998535 0.031698
vn 0.058085 -0.998312 0.000000
vn 0.043036 -0.999073 0.000000
vn 0.043015 -0.998564 0.031921
vn -0.000000 0.000000 1.000000
vn -0.000000 0.000000 1.000000
vn -0.015480 0.999880 0.000096
vn -0.054734 0.998140 -0.026845
vn 0.000000 0.000000 -1.000000
vn 0.000000 0.000000 -1.000000
vn 0.054731 -0.998140 0.026845
vn 0.015473 -0.999880 -0.000095
vn -0.000000 0.000000 1.000000
vn 0.000000 0.000000 1.000000
vn 0.004809 0.999988 0.000789
vn 0.017946 0.999733 -0.014556
vn 0.000000 0.000000 -1.000000
vn 0.000000 0.000000 -1.000000
vn -0.017954 -0.999733 0.014566
vn -0.004809 -0.999988 -0.000787
vn 0.023604 0.999564 0.017754
vn -0.054630 0.998146 0.026851
vn 0.053335 0.998249 0.025584
vn 0.052988 0.998247 0.026368
vn -1.000000 0.000000 0.000000
vn -1.000000 0.000000 0.000000
vn -0.052989 -0.998247 -0.026369
vn -0.053335 -0.998249 -0.025586
vn -0.023604 -0.999564 -0.017757
vn 0.054628 -0.998146 -0.026851
vn 0.043846 -0.998535 -0.031697
vn 0.043014 -0.998564 -0.031920
vn 1.000000 0.000000 0.000000
vn 1.000000 0.000000 0.000000
vn -0.043845 0.998535 0.031697
vn -0.043013 0.998564 0.031920
s 1
g pCube1
usemtl initialShadingGroup
f 1/1/1 21/49/2 22/52/3 3/3/4
s 2
f 3/5/5 22/51/6 27/59/7 28/61/8
s 3
f 5/9/9 23/53/10 24/56/11 7/11/12
s 4
f 29/63/13 30/64/14 21/50/15 1/15/16
s 5
f 2/17/17 34/69/18 35/71/19 4/19/20
s 6
f 29/62/21 1/22/22 3/24/23 28/60/24
s 1
f 9/25/25 2/2/26 4/4/27 10/28/28
s 2
f 36/72/29 10/27/30 4/6/31 35/70/32
s 3
f 12/32/33 11/29/34 6/10/35 8/12/36
s 4
f 9/26/37 33/67/38 34/68/39 2/16/40
s 1
f 13/33/41 9/25/25 10/28/28 14/36/42
s 2
f 36/72/29 25/57/43 14/35/44 10/27/30
s 3
f 16/40/45 15/37/46 11/29/34 12/32/33
s 4
f 13/34/47 32/66/48 33/67/38 9/26/37
s 1
f 17/41/49 13/33/41 14/36/42 18/44/50
s 2
f 26/58/51 18/43/52 14/35/44 25/57/43
s 3
f 20/48/53 19/45/54 15/37/46 16/40/45
s 4
f 17/42/55 31/65/56 32/66/48 13/34/47
s 1
f 21/49/2 17/41/49 18/44/50 22/52/3
s 2
f 27/59/7 22/51/6 18/43/52 26/58/51
s 3
f 24/56/11 23/53/10 19/45/54 20/48/53
s 4
f 21/50/15 30/64/14 31/65/56 17/42/55
s 2
f 19/46/57 26/58/51 25/57/43 15/38/58
f 23/54/59 27/59/7 26/58/51 19/46/57
f 28/61/8 27/59/7 23/54/59 5/7/60
s 6
f 7/21/61 29/62/21 28/60/24 5/23/62
s 4
f 7/13/63 24/55/64 30/64/14 29/63/13
f 31/65/56 30/64/14 24/55/64 20/47/65
f 32/66/48 31/65/56 20/47/65 16/39/66
f 33/67/38 32/66/48 16/39/66 12/31/67
f 34/68/39 33/67/38 12/31/67 8/14/68
s 5
f 35/71/19 34/69/18 8/18/69 6/20/70
s 2
f 11/30/71 36/72/29 35/70/32 6/8/72
f 15/38/58 25/57/43 36/72/29 11/30/71
